<svg version="1.1" preserveAspectRatio="none" xmlns="http://www.w3.org/2000/svg" width="500" height="500" viewBox="0 0 500 500"><rect width="100%" height="100%" fill="#F7F7F7" fill-opacity="1"/><svg viewBox="107.972 149.9368 384.0562 268.3534" width="333" height="232.67866057103103" x="83.5px" y="133.6607px" xmlns="http://www.w3.org/2000/svg" xmlns:xlink="http://www.w3.org/1999/xlink" preserveAspectRatio="none"><defs></defs><style>.companyName {fill:#2B2B2B;fill-opacity:1;}.icon1 {fill:#2B2B2B;fill-opacity:1;}.icon2 {fill:#59C65B;fill-opacity:1;}.icon3 {fill:#6D6D6D;fill-opacity:1;}.icon3-str {stroke:#6D6D6D;stroke-opacity:1;}</style><g opacity="1" transform="rotate(0 223.1889 149.9368)">
<svg width="153.6225" height="168.3534" x="223.1889" y="149.9368" version="1.1" preserveAspectRatio="none" viewBox="27 20 146 160">
  <g transform="matrix(1 0 0 1 0 0)" ><g><path d="M118 99.9v1.1l-87.4.3v-1.1c0 .1 87.4-.3 87.4-.3z" data-color="1" class="icon1"></path><path d="M118.5 100.4l35 75.9-1 .5-35-75.9 1-.5z" data-color="1" class="icon1"></path><path d="M169.5 23l1 .6-52.2 77.2-1-.6L169.5 23z" data-color="1" class="icon1"></path><path d="M118.3 100.5l2.9 69.1H120l-2.9-69.1h1.2z" data-color="1" class="icon1"></path><path d="M126.1 35.6l1.1.2-8.9 64.8-1.1-.2c-.1 0 8.9-64.8 8.9-64.8z" data-color="1" class="icon1"></path><path d="M71 66.8l47 33.2-.7.9-47-33.2c.1 0 .7-.9.7-.9z" data-color="1" class="icon1"></path><path d="M103.1 74l15 26.1-1 .6-15-26.1 1-.6z" data-color="1" class="icon1"></path><path d="M152.1 86.5l.4 1.1-34.6 13.4-.4-1.1 34.6-13.4z" data-color="1" class="icon1"></path><path d="M117.9 100l31.4 13.3-.5 1.1-31.3-13.4.4-1z" data-color="1" class="icon1"></path><path d="M117.3 100.2l.9.7L88 142.1l-.9-.7 30.2-41.2z" data-color="1" class="icon1"></path><path d="M117.4 100l.6 1-22.6 12.5-.6-1 22.6-12.5z" data-color="1" class="icon1"></path><path d="M117.1 100.4l1.1.3-7.7 32.1-1.1-.3 7.7-32.1z" data-color="1" class="icon1"></path><path d="M125.1 80.4l1.1.4-7.9 19.8-1.1-.4 7.9-19.8z" data-color="1" class="icon1"></path><path d="M126.8 36.4c-1.2 0-2.1-.9-2.1-2.1s.9-2.1 2.1-2.1c1.2 0 2.1.9 2.1 2.1 0 1.1-1 2.1-2.1 2.1zm0-3.1c-.5 0-.9.4-.9.9s.4.9 1 .9c.5 0 .9-.4.9-.9-.1-.4-.5-.9-1-.9z" data-color="1" class="icon1"></path><path d="M170.9 24.2c-1.2 0-2.1-.9-2.1-2.1s.9-2.1 2.1-2.1c1.2 0 2.1.9 2.1 2.1 0 1.2-.9 2.1-2.1 2.1zm0-3.1c-.5 0-.9.4-.9.9s.4.9.9.9.9-.4.9-.9c0-.4-.4-.8-.9-.9z" data-color="1" class="icon1"></path><path d="M153.6 88.5c-1.2 0-2.1-.9-2.1-2.1 0-1.2.9-2.1 2.1-2.1 1.2 0 2.1.9 2.1 2.1.1 1.2-.9 2.1-2.1 2.1zm0-3c-.5 0-.9.4-.9.9s.4.9.9.9.9-.4.9-.9c.1-.5-.3-.9-.9-.9z" data-color="1" class="icon1"></path><path d="M150.6 116.5c-1.2 0-2.1-.9-2.1-2.1 0-1.2.9-2.1 2.1-2.1 1.2 0 2.1.9 2.1 2.1 0 1.1-.9 2.1-2.1 2.1zm0-3.1c-.5 0-.9.4-.9.9s.4.9.9.9.9-.4.9-.9c.1-.4-.3-.9-.9-.9z" data-color="1" class="icon1"></path><path d="M153.6 180c-1.2 0-2.1-.9-2.1-2.1 0-1.2.9-2.1 2.1-2.1 1.2 0 2.1.9 2.1 2.1.1 1.2-.9 2.1-2.1 2.1zm0-3c-.5 0-.9.4-.9.9s.4.9.9.9.9-.4.9-.9c.1-.5-.3-.9-.9-.9z" data-color="1" class="icon1"></path><path d="M120.8 173.2c-1.2 0-2.1-.9-2.1-2.1s.9-2.1 2.1-2.1c1.2 0 2.1.9 2.1 2.1 0 1.2-1 2.1-2.1 2.1zm0-3c-.5 0-.9.4-.9.9s.4.9.9.9.9-.4.9-.9-.4-.9-.9-.9z" data-color="1" class="icon1"></path><path d="M86.7 145c-1.2 0-2.1-.9-2.1-2.1 0-1.2.9-2.1 2.1-2.1 1.2 0 2.1.9 2.1 2.1 0 1.2-1 2.1-2.1 2.1zm0-3c-.5 0-.9.4-.9.9s.4.9.9.9.9-.4.9-.9-.4-.9-.9-.9z" data-color="1" class="icon1"></path><path d="M109.7 136.1c-1.2 0-2.1-.9-2.1-2.1s.9-2.1 2.1-2.1c1.2 0 2.1.9 2.1 2.1 0 1.1-.9 2.1-2.1 2.1zm0-3.1c-.5 0-1 .4-1 .9s.4.9.9.9 1-.4 1-.9c.1-.5-.3-.9-.9-.9z" data-color="1" class="icon1"></path><path d="M93.9 115.9c-1.2 0-2.1-.9-2.1-2.1 0-1.2.9-2.1 2.1-2.1 1.1 0 2 .9 2.1 2 .1 1.2-.8 2.2-2 2.2h-.1zm0-3.1c-.6 0-1 .5-.9 1 0 .2.1.5.3.6.2.2.4.2.7.2.5 0 .9-.5.9-1-.1-.4-.5-.8-1-.8z" data-color="1" class="icon1"></path><path d="M29.1 102.9c-1.2 0-2.1-.9-2.1-2.1 0-1.2.9-2.1 2.1-2.1 1.2 0 2.1.9 2.1 2.1 0 1.2-.9 2.1-2.1 2.1zm0-3c-.5 0-.9.4-.9.9s.4.9.9.9.9-.4.9-.9c.1-.5-.4-.9-.9-.9z" data-color="1" class="icon1"></path><path d="M69.4 68.5c-1.2 0-2.1-.9-2.1-2.1s.9-2.1 2.1-2.1 2.1.9 2.1 2.1c0 1.2-.9 2.1-2.1 2.1zm0-3c-.5 0-.9.4-.9.9s.4.9.9.9.9-.4.9-.9c.1-.5-.4-.9-.9-.9z" data-color="1" class="icon1"></path><path d="M101.9 75.1c-1.2 0-2.1-.9-2.1-2.1 0-1.2.9-2.1 2.1-2.1 1.2 0 2.1.9 2.1 2.1 0 1.2-.9 2.1-2.1 2.1zm0-3c-.5 0-1 .4-1 .9s.4.9.9.9 1-.4 1-.9-.4-.9-.9-.9z" data-color="1" class="icon1"></path><path d="M126.2 81.3c-1.2 0-2.1-.9-2.1-2.1 0-1.2.9-2.1 2.1-2.1 1.2 0 2.1.9 2.1 2.1 0 1.2-1 2.1-2.1 2.1zm0-3c-.5 0-.9.4-.9.9s.4.9.9.9.9-.4.9-.9-.4-.9-.9-.9z" data-color="1" class="icon1"></path></g></g>
</svg>
</g><g opacity="1" transform="rotate(0 107.972 358.2902)">
<svg width="384.0562" height="60" x="107.972" y="358.2902" version="1.1" preserveAspectRatio="none" viewBox="1.32 -25.44 162.84 25.44">
  <g transform="matrix(1 0 0 1 0 0)" class="companyName"><path id="id-D6z1nYkh9" d="M10.64-5.20L10.64-5.20L10.64-9.80Q10.64-10.32 10.40-10.54Q10.16-10.76 9.56-10.76L9.56-10.76L6.04-10.76Q1.32-10.76 1.32-15.24L1.32-15.24L1.32-21.04Q1.32-25.44 6.36-25.44L6.36-25.44L11.24-25.44Q16.28-25.44 16.28-21.04L16.28-21.04L16.28-17.72L10.56-17.72L10.56-20.24Q10.56-21.24 9.48-21.24L9.48-21.24L8.12-21.24Q7.04-21.24 7.04-20.24L7.04-20.24L7.04-15.76Q7.04-15.24 7.28-15.02Q7.52-14.80 8.12-14.80L8.12-14.80L11.56-14.80Q14.12-14.80 15.24-13.70Q16.36-12.60 16.36-10.44L16.36-10.44L16.36-4.44Q16.36 0 11.32 0L11.32 0L6.48 0Q1.40 0 1.40-4.44L1.40-4.44L1.40-7.72L7.12-7.72L7.12-5.20Q7.12-4.20 8.20-4.20L8.20-4.20L9.56-4.20Q10.64-4.20 10.64-5.20Z M26-10.84L26-4.20L34.16-4.20L34.16 0L20.28 0L20.28-25.44L33.84-25.44L33.84-21.24L26-21.24L26-15.04L32.68-15.04L32.68-10.84L26-10.84Z M42.48-17.04L42.48 0L37.44 0L37.44-25.44L43.68-25.44L47.88-11.04L52.08-25.44L58.32-25.44L58.32 0L53.28 0L53.28-17.08L50-5.52L45.76-5.52L42.48-17.04Z M85.72-21.04L85.72-17.20L80-17.20L80-20.52Q80-21.52 78.92-21.52L78.92-21.52L77.28-21.52Q76.20-21.52 76.20-20.52L76.20-20.52L76.20-4.92Q76.20-4.36 76.44-4.14Q76.68-3.92 77.28-3.92L77.28-3.92L78.92-3.92Q79.52-3.92 79.76-4.14Q80-4.36 80-4.92L80-4.92L80-9.88L78-9.88L78-13.68L85.72-13.68L85.72-4.40Q85.72 0 80.68 0L80.68 0L75.52 0Q70.48 0 70.48-4.40L70.48-4.40L70.48-21.04Q70.48-25.44 75.52-25.44L75.52-25.44L80.68-25.44Q85.72-25.44 85.72-21.04L85.72-21.04Z M96.40-9.52L95.40-9.52L95.40 0L89.72 0L89.72-25.44L100.20-25.44Q105.24-25.44 105.24-21.04L105.24-21.04L105.24-13.92Q105.24-10.40 102.04-9.68L102.04-9.68L106.52 0L100.40 0L96.40-9.52ZM98.48-21.24L95.40-21.24L95.40-13.56L98.48-13.56Q99.04-13.56 99.28-13.78Q99.52-14 99.52-14.52L99.52-14.52L99.52-20.24Q99.52-21.24 98.48-21.24L98.48-21.24Z M114.20-25.44L114.20-25.44L119.56-25.44Q124.60-25.44 124.60-21.04L124.60-21.04L124.60-4.44Q124.60 0 119.56 0L119.56 0L114.20 0Q109.12 0 109.12-4.44L109.12-4.44L109.12-21.04Q109.12-25.44 114.20-25.44ZM118.88-5.20L118.88-5.20L118.88-20.24Q118.88-21.24 117.84-21.24L117.84-21.24L115.92-21.24Q114.84-21.24 114.84-20.24L114.84-20.24L114.84-5.20Q114.84-4.20 115.92-4.20L115.92-4.20L117.84-4.20Q118.88-4.20 118.88-5.20Z M138.56-5.20L138.56-25.44L144.28-25.44L144.28-4.44Q144.28 0 139.20 0L139.20 0L133.84 0Q128.80 0 128.80-4.44L128.80-4.44L128.80-25.44L134.52-25.44L134.52-5.20Q134.52-4.20 135.56-4.20L135.56-4.20L137.48-4.20Q138.56-4.20 138.56-5.20L138.56-5.20Z M148.64 0L148.64-25.44L159.12-25.44Q164.16-25.44 164.16-21.04L164.16-21.04L164.16-13.32Q164.16-8.88 159.12-8.88L159.12-8.88L154.32-8.88L154.32 0L148.64 0ZM158.44-14.08L158.44-14.08L158.44-20.24Q158.44-21.24 157.40-21.24L157.40-21.24L154.32-21.24L154.32-13.08L157.40-13.08Q158.44-13.08 158.44-14.08Z"/></g>
</svg>
</g></svg></svg>